<svg width="192" height="192" viewBox="0 0 192 192" fill="none" xmlns="http://www.w3.org/2000/svg">
  <rect width="192" height="192" rx="42" fill="#3b82f6"/>
  <path d="M96 52C71.6995 52 52 71.6995 52 96C52 120.301 71.6995 140 96 140C120.301 140 140 120.301 140 96C140 71.6995 120.301 52 96 52ZM96 128C78.3269 128 64 113.673 64 96C64 78.3269 78.3269 64 96 64C113.673 64 128 78.3269 128 96C128 113.673 113.673 128 96 128Z" fill="white"/>
  <path d="M96 64V96L114 106" stroke="white" stroke-width="8" stroke-linecap="round" stroke-linejoin="round"/>
</svg>
