<svg width="96" height="96" viewBox="0 0 96 96" fill="none" xmlns="http://www.w3.org/2000/svg">
  <rect width="96" height="96" rx="20" fill="#3b82f6"/>
  <path d="M48 26C35.85 26 26 35.85 26 48C26 60.15 35.85 70 48 70C60.15 70 70 60.15 70 48C70 35.85 60.15 26 48 26ZM48 64C38.626 64 31 56.374 31 48C31 39.626 38.626 32 48 32C57.374 32 65 39.626 65 48C65 56.374 57.374 64 48 64Z" fill="white"/>
  <path d="M48 37V48L56 53" stroke="white" stroke-width="4" stroke-linecap="round" stroke-linejoin="round"/>
</svg>
